<svg xmlns="http://www.w3.org/2000/svg" viewBox="0 0 835.82 558.49"><defs><style>.cls-1{fill:none;stroke:#000;stroke-miterlimit:10;stroke-width:54px;}</style></defs><g id="Layer_1" data-name="Layer 1"><path d="M851.79,359.31q12.15,4,20.59,15.57t8.43,29.9a74.85,74.85,0,0,1-3.59,23.65,44.24,44.24,0,0,1-12.17,18.77q-8.56,7.94-23.07,12.51t-36.35,4.58H643.11V340.09H806.74a21.3,21.3,0,0,0,11.19-2.9q4.83-2.9,4.84-10.83,0-7.64-5-10.38a22.47,22.47,0,0,0-11-2.75l-163.63-1.65V257.65l161.14,2.49a119,119,0,0,1,30,3.5,65.62,65.62,0,0,1,22.94,10.68A48.35,48.35,0,0,1,871.83,292q5.1,10.52,5.11,24.56a54,54,0,0,1-2.21,16.17,50.28,50.28,0,0,1-5.67,12.36,34.8,34.8,0,0,1-8,8.85A37.67,37.67,0,0,1,851.79,359.31ZM700.6,383.73V411.8H805.91q9.39,0,13.54-3.66t4.15-10.68q0-6.7-4.15-10.22t-13.54-3.51Z" transform="translate(-579.27 -257.65)"/><path d="M1108.14,516.44q-6.09-10.77-10.51-18.93t-8-14.65q-3.6-6.5-6.22-11.75l-5.11-10.22c-1.48,3.31-3.09,6.73-4.84,10.22s-3.78,7.42-6.08,11.75-4.93,9.17-7.88,14.51S1053,509,1049,516.17l-29.58,52.51a42.94,42.94,0,0,1-12.57,14.24q-7.61,5.39-18.94,5.39a32.76,32.76,0,0,1-19.48-6.22q-8.71-6.23-12.58-19.21l-47-162.52h57.21l17.41,64.4q4.42,15.75,7.33,27.64t5.11,23.21q4.43-9.66,10.36-21.42t15.62-29.71l24.88-46.43a53.16,53.16,0,0,1,7.18-10.92,29.6,29.6,0,0,1,7.6-6.22A25.52,25.52,0,0,1,1070,398a61,61,0,0,1,9.4-.69,63,63,0,0,1,9.68.69,25.68,25.68,0,0,1,8.43,2.9,31.68,31.68,0,0,1,7.73,6.22,49.71,49.71,0,0,1,7.33,10.92l24.6,46.71q5.25,9.67,9.12,17t6.91,13.26c2,4,3.82,7.6,5.39,10.92s3.08,6.54,4.56,9.67q2.2-11,5.39-23.21t7.32-27.64l17.61-64.4h56.2l-48.38,162.52q-3.87,13-12.57,19.21a32.79,32.79,0,0,1-19.49,6.22q-11.06,0-18.66-5.26a43.26,43.26,0,0,1-12.85-14.37Z" transform="translate(-579.27 -257.65)"/></g><g id="Layer_2" data-name="Layer 2"><path class="cls-1" d="M1220.15,404.48c3-22.35,24-42,44.66-51.71,23.24-11,50.16-12.1,73.92-2.31,49.81,20.53,56.2,75.5,44.07,137.31-29,148-150.87,249.88-297.8,289.9-116,31.59-370.61,6.84-482.33-187.56" transform="translate(-579.27 -257.65)"/></g></svg>