<?xml version="1.0" encoding="utf-8"?>
<!-- Generator: Adobe Illustrator 24.3.0, SVG Export Plug-In . SVG Version: 6.00 Build 0)  -->
<svg version="1.1" id="Layer_1" xmlns="http://www.w3.org/2000/svg" xmlns:xlink="http://www.w3.org/1999/xlink" x="0px" y="0px"
	 viewBox="0 0 835.8 558.5" style="enable-background:new 0 0 835.8 558.5;" xml:space="preserve">
<style type="text/css">
	.st0{fill:#FFFFFF;}
	.st1{fill:none;stroke:#FFFFFF;stroke-width:54;stroke-miterlimit:10;}
</style>
<g id="Layer_1_1_">
	<path class="st0" d="M272.5,101.7c8.1,2.7,15,7.9,20.6,15.6s8.4,17.7,8.4,29.9c0.1,8-1.1,16-3.6,23.6c-2.4,7.2-6.6,13.7-12.2,18.8
		c-5.7,5.3-13.4,9.5-23.1,12.5c-9.7,3-21.8,4.6-36.3,4.6H63.8V82.4h163.6c3.9,0.1,7.8-0.9,11.2-2.9c3.2-1.9,4.8-5.5,4.8-10.8
		c0-5.1-1.7-8.6-5-10.4c-3.4-1.8-7.2-2.8-11-2.8L63.9,53.9V0L225,2.5c10.1-0.1,20.2,1.1,30,3.5c8.3,2,16.1,5.7,22.9,10.7
		c6.2,4.6,11.2,10.7,14.6,17.7c3.4,7,5.1,15.2,5.1,24.6c0.1,5.5-0.7,10.9-2.2,16.2c-1.3,4.4-3.2,8.5-5.7,12.4
		c-2.1,3.4-4.8,6.4-8,8.9C279,98.5,275.9,100.3,272.5,101.7z M121.3,126.1v28.1h105.3c6.3,0,10.8-1.2,13.5-3.7s4.1-6,4.2-10.7
		c0-4.5-1.4-7.9-4.2-10.2s-7.3-3.5-13.5-3.5L121.3,126.1z"/>
	<path class="st0" d="M528.9,258.8c-4.1-7.2-7.6-13.5-10.5-18.9c-2.9-5.4-5.6-10.3-8-14.6c-2.4-4.3-4.5-8.2-6.2-11.8l-5.1-10.2
		c-1.5,3.3-3.1,6.7-4.8,10.2s-3.8,7.4-6.1,11.8s-4.9,9.2-7.9,14.5s-6.5,11.6-10.5,18.8L440.1,311c-3.1,5.6-7.4,10.5-12.6,14.2
		c-5.1,3.6-11.4,5.4-18.9,5.4c-7,0.1-13.8-2.1-19.5-6.2c-5.8-4.2-10-10.6-12.6-19.2l-47-162.5h57.2l17.4,64.4
		c2.9,10.5,5.4,19.7,7.3,27.6c1.9,7.9,3.6,15.7,5.1,23.2c3-6.4,6.4-13.6,10.4-21.4c4-7.8,9.2-17.7,15.6-29.7l24.9-46.4
		c1.9-3.9,4.3-7.6,7.2-10.9c2.2-2.5,4.7-4.6,7.6-6.2c2.6-1.5,5.5-2.4,8.5-2.9c3.1-0.5,6.3-0.7,9.4-0.7c3.2,0,6.5,0.2,9.7,0.7
		c3,0.5,5.8,1.4,8.4,2.9c2.9,1.7,5.5,3.8,7.7,6.2c2.9,3.3,5.4,7,7.3,10.9l24.6,46.7c3.5,6.4,6.5,12.1,9.1,17s4.9,9.3,6.9,13.3
		c2,4,3.8,7.6,5.4,10.9s3.1,6.5,4.6,9.7c1.5-7.3,3.3-15.1,5.4-23.2c2.1-8.1,4.6-17.4,7.3-27.6l17.6-64.4h56.2L622,305.2
		c-2.6,8.7-6.8,15.1-12.6,19.2c-5.7,4.1-12.5,6.3-19.5,6.2c-7.4,0-13.6-1.8-18.7-5.3c-5.3-3.8-9.7-8.7-12.8-14.4L528.9,258.8z"/>
</g>
<g id="Layer_2_1_">
	<path class="st1" d="M640.9,146.8c3-22.4,24-42,44.7-51.7c23.2-11,50.2-12.1,73.9-2.3c49.8,20.5,56.2,75.5,44.1,137.3
		c-29,148-150.9,249.9-297.8,289.9c-116,31.6-370.6,6.8-482.3-187.6"/>
</g>
</svg>
